# xmcd
#
# Track frame offsets: 
#        150
#        11913
#        35549
#        54846
#        79067
#        94535
#        110701
#        113773
#        129644
#        152544
#        173257
#
# Disc length: 2564 seconds
#
# Revision: 0
# Processed by: cddbd v1.4PL0 Copyright (c) Steve Scherf et al.
# Submitted via: ExactAudioCopy v0.90b4
#
DISCID=7b0a020b
DTITLE=Delta Wires - Tears Like Rain
DYEAR=2002
DGENRE=Blues
TTITLE0=Honey Bee
TTITLE1=Tears Like Rain
TTITLE2=Back In Town
TTITLE3=Travelin'
TTITLE4=Lonesome Blues
TTITLE5=Leaner Days
TTITLE6=Life's A Mystery
TTITLE7=After Me You're First
TTITLE8=Devil Woman
TTITLE9=Leave It That Way
TTITLE10=She's Out The Door
EXTD=
EXTT0=
EXTT1=
EXTT2=
EXTT3=
EXTT4=
EXTT5=
EXTT6=
EXTT7=
EXTT8=
EXTT9=
EXTT10=
PLAYORDER=
